<svg width="24" height="28" viewBox="0 0 24 28" fill="none" xmlns="http://www.w3.org/2000/svg">
<path d="M11.8724 3.64359C5.32589 3.64359 0 9.05838 0 15.7139C0 22.3695 5.32589 27.7843 11.8724 27.7843C18.4188 27.7843 23.7447 22.3696 23.7447 15.714C23.7447 9.05843 18.4188 3.64359 11.8724 3.64359Z" fill="#00D8E0"/>
<path d="M18.6956 11.4156L23.0945 11.7737C22.2043 9.1606 20.4547 6.95229 18.1908 5.49962L17.1979 9.38045C17.0785 9.84697 17.2006 10.3422 17.5229 10.6999L17.7438 10.9449C17.9895 11.2175 18.3299 11.3858 18.6956 11.4156Z" fill="#006C71"/>
<path d="M3.49248 16.5128L0.519532 12.1802C0.182134 13.2984 0 14.4849 0 15.714C0 20.1518 2.36819 24.0372 5.88675 26.1343L6.84932 21.5864C7.18578 19.9967 6.37819 18.3855 4.9031 17.7038C4.33433 17.441 3.84701 17.0295 3.49248 16.5128Z" fill="#006C71"/>
<path d="M18.7641 16.1182L15.9829 16.856C15.4629 16.994 15.0416 17.3748 14.8521 17.8783L14.0741 19.9452C13.9518 20.2703 13.9342 20.6255 14.0239 20.9612L14.4029 22.3794C14.5712 23.0091 15.0915 23.4826 15.7342 23.5909C16.6208 23.7402 16.1844 24.9491 16.0626 25.8398L15.3642 27.2365C16.761 26.8874 21.9988 24.7922 23.3955 18.5069C23.4779 18.136 23.7699 16.7322 23.7447 16.4117L19.5219 16.0959C19.271 16.0449 19.0116 16.0525 18.7641 16.1182Z" fill="#006C71"/>
<path d="M13.3629 16.2519H10.372C9.63797 16.2519 9.04289 15.6567 9.04289 14.9228C9.04289 14.1888 9.63803 13.5936 10.372 13.5936H13.3629C14.097 13.5936 14.6921 14.1888 14.6921 14.9228C14.6921 15.6567 14.097 16.2519 13.3629 16.2519Z" fill="#555559" fill-opacity="0.4"/>
<path d="M15.7821 1.59269C14.7324 0.565382 13.3359 0 11.8486 0C11.8452 0 11.8416 0 11.8382 0H11.8381C8.75907 0.00555611 6.25844 2.515 6.26386 5.59417C6.26604 6.848 7.05034 8.6865 8.66129 11.2145C9.78229 12.9736 10.886 14.4059 10.9325 14.466C11.1551 14.7542 11.4986 14.9228 11.8626 14.9228C11.8642 14.9228 11.8658 14.9228 11.8675 14.9228C12.2332 14.9213 12.5775 14.7496 12.7987 14.4583C12.8449 14.3975 13.9429 12.9477 15.0571 11.171C16.6576 8.61893 17.4345 6.76958 17.4323 5.51735C17.4295 4.02524 16.8436 2.63136 15.7821 1.59269Z" fill="#D83249"/>
<path d="M11.8492 8.49374C13.1792 8.49374 14.2573 7.41557 14.2573 6.08558C14.2573 4.75559 13.1792 3.67742 11.8492 3.67742C10.5192 3.67742 9.44101 4.75559 9.44101 6.08558C9.44101 7.41557 10.5192 8.49374 11.8492 8.49374Z" fill="#FAD52A"/>
</svg>
